<svg width="188" height="53" viewBox="0 0 188 53" fill="none" xmlns="http://www.w3.org/2000/svg">
<rect width="188" height="53" rx="10" fill="#FFA800"/>
<path d="M57.0262 16.0792L36.5977 9.24586L39.1301 7.02502L58.5457 13.8584C61.0782 14.7979 61.4158 17.6167 61.4158 18.8125V38.8L58.5457 40.85V18.8125C58.5457 17.0188 57.7016 16.3354 57.0262 16.0792Z" fill="white"/>
<path d="M50.2727 20.6063L30.3506 13.8583L32.8831 11.8083L51.7921 18.3C53.9385 19.0517 54.6623 21.5458 54.6623 22.5708V44.2667L51.961 45.975V23.425C51.961 21.6313 51.2012 21.0333 50.2727 20.6063Z" fill="white"/>
<path d="M41.1554 21.5459L38.4541 20.5209V29.575C38.4541 31.7617 39.8048 33.3334 41.1554 33.8459L47.9086 36.2375V33.3334C45.3762 32.3938 41.1554 32.3084 41.1554 29.575V21.5459Z" fill="white"/>
<path d="M33.0519 18.8125L30.3506 17.9584V34.9563C30.3506 39.4663 36.0064 40.1667 38.4545 41.1063L47.909 44.2667V41.5334L38.4545 38.2875C34.8246 37.2625 33.0519 36.2375 33.0519 34.9563V18.8125Z" fill="white"/>
<path d="M74.2412 30.4238H77.1034C77.1297 31.2334 77.486 31.9541 78.1718 32.5859C78.8665 33.2087 79.7458 33.5202 80.8098 33.5202C81.8474 33.5202 82.6652 33.2754 83.263 32.7861C83.8698 32.2967 84.2215 31.6829 84.3182 30.9444C84.415 29.3961 83.4346 28.3774 81.3769 27.888L79.0291 27.2873C75.9515 26.442 74.4126 24.7561 74.4126 22.2291C74.4126 21.1792 74.694 20.2405 75.2567 19.413C75.8284 18.5856 76.5802 17.9538 77.5123 17.5179C78.4444 17.073 79.4556 16.8505 80.5459 16.8505C82.2958 16.8505 83.738 17.3577 84.8723 18.372C86.0153 19.3775 86.587 20.7254 86.587 22.416H83.7248C83.7248 21.5618 83.4214 20.8767 82.8146 20.3606C82.2166 19.8357 81.4385 19.5732 80.48 19.5732C79.6008 19.5732 78.8444 19.8179 78.2113 20.3072C77.5869 20.7966 77.2749 21.4194 77.2749 22.1757C77.2749 23.3858 78.1014 24.2043 79.7546 24.6314L82.1288 25.2587C83.9666 25.757 85.3032 26.5133 86.1386 27.5277C86.9738 28.533 87.3125 29.7297 87.1541 31.1177C87.0222 32.6037 86.3716 33.8183 85.2021 34.7613C84.0414 35.6956 82.5773 36.1626 80.8098 36.1626C79.5611 36.1626 78.4267 35.8958 77.4068 35.3619C76.3955 34.8281 75.613 34.1251 75.0589 33.2532C74.5137 32.3812 74.2412 31.4381 74.2412 30.4238ZM90.1878 42.1018V23.1366H92.9708V25.0185C93.349 24.3512 93.9293 23.8262 94.712 23.4436C95.4945 23.0521 96.3211 22.8564 97.1916 22.8564C98.326 22.8564 99.368 23.1321 100.318 23.6839C101.267 24.2267 102.028 25.0096 102.6 26.0329C103.171 27.056 103.457 28.2216 103.457 29.5295C103.457 30.5262 103.29 31.4425 102.956 32.2789C102.622 33.1153 102.169 33.8183 101.597 34.3877C101.026 34.9482 100.362 35.3841 99.6054 35.6956C98.8492 36.007 98.0446 36.1626 97.1916 36.1626C96.2948 36.1626 95.4594 35.9848 94.6855 35.6289C93.9117 35.264 93.3402 34.7435 92.9708 34.0674V42.1018H90.1878ZM92.9972 29.583C92.9972 30.3837 93.1863 31.0867 93.5644 31.6917C93.9425 32.2967 94.4174 32.746 94.9889 33.0396C95.5605 33.3244 96.1761 33.4667 96.8355 33.4667C97.9083 33.4667 98.8053 33.1109 99.5262 32.399C100.256 31.6783 100.621 30.7397 100.621 29.583C100.621 28.4085 100.256 27.452 99.5262 26.7135C98.8053 25.9661 97.9083 25.5925 96.8355 25.5925C95.7628 25.5925 94.8526 25.9572 94.1052 26.6868C93.3666 27.4165 92.9972 28.3819 92.9972 29.583ZM105.765 29.5029C105.765 28.1861 106.06 27.016 106.649 25.9927C107.247 24.9696 108.029 24.191 108.997 23.6571C109.964 23.1233 111.019 22.8564 112.162 22.8564C112.998 22.8564 113.811 23.0343 114.602 23.3903C115.403 23.7372 116.005 24.2533 116.409 24.9384V23.1366H119.166V35.8958H116.409V34.0674C116.014 34.7257 115.416 35.2418 114.615 35.6154C113.815 35.9803 112.998 36.1626 112.162 36.1626C111.309 36.1626 110.496 36.007 109.722 35.6956C108.948 35.3753 108.267 34.9348 107.678 34.3743C107.097 33.8048 106.631 33.0975 106.279 32.2523C105.937 31.407 105.765 30.4904 105.765 29.5029ZM108.627 29.4762C108.627 30.6329 109.001 31.585 109.748 32.3324C110.505 33.0709 111.419 33.4401 112.492 33.4401C113.574 33.4401 114.492 33.0842 115.249 32.3723C116.005 31.6516 116.383 30.6862 116.383 29.4762C116.383 28.2928 115.987 27.3497 115.196 26.6467C114.413 25.9439 113.512 25.5925 112.492 25.5925C111.41 25.5925 110.496 25.9528 109.748 26.6735C109.001 27.3941 108.627 28.3284 108.627 29.4762ZM121.791 25.4589V23.1366H124.06V18.2919H126.843V23.1366H129.52V25.4589H126.843V35.8958H124.06V25.4589H121.791ZM132.198 19.2395C131.837 18.8925 131.657 18.4699 131.657 17.9716C131.657 17.4734 131.837 17.0507 132.198 16.7037C132.567 16.3567 133.007 16.1832 133.517 16.1832C134.035 16.1832 134.471 16.3567 134.823 16.7037C135.174 17.0418 135.35 17.4645 135.35 17.9716C135.35 18.4788 135.174 18.9014 134.823 19.2395C134.471 19.5777 134.035 19.7467 133.517 19.7467C133.007 19.7467 132.567 19.5777 132.198 19.2395ZM132.132 35.8958V23.1366H134.889V35.8958H132.132ZM137.975 29.5029C137.975 28.1861 138.27 27.016 138.859 25.9927C139.457 24.9696 140.239 24.191 141.206 23.6571C142.174 23.1233 143.229 22.8564 144.372 22.8564C145.207 22.8564 146.021 23.0343 146.812 23.3903C147.612 23.7372 148.215 24.2533 148.619 24.9384V23.1366H151.376V35.8958H148.619V34.0674C148.224 34.7257 147.626 35.2418 146.825 35.6154C146.025 35.9803 145.207 36.1626 144.372 36.1626C143.519 36.1626 142.706 36.007 141.932 35.6956C141.158 35.3753 140.477 34.9348 139.887 34.3743C139.307 33.8048 138.841 33.0975 138.489 32.2523C138.146 31.407 137.975 30.4904 137.975 29.5029ZM140.837 29.4762C140.837 30.6329 141.211 31.585 141.958 32.3324C142.715 33.0709 143.629 33.4401 144.702 33.4401C145.783 33.4401 146.702 33.0842 147.459 32.3723C148.215 31.6516 148.593 30.6862 148.593 29.4762C148.593 28.2928 148.197 27.3497 147.406 26.6467C146.623 25.9439 145.722 25.5925 144.702 25.5925C143.62 25.5925 142.706 25.9528 141.958 26.6735C141.211 27.3941 140.837 28.3284 140.837 29.4762ZM155.267 35.8958V16.1832H158.05V35.8958H155.267Z" fill="white"/>
<path d="M72.9717 8.80872H73.74L74.8479 12.3155L75.646 9.44935H76.2065L77.0012 12.3155L78.1092 8.80872H78.8808L77.3046 13.5166H76.7045L75.923 10.6939L75.1447 13.5166H74.5447L72.9717 8.80872ZM78.9237 11.9184C78.9237 11.5892 78.9973 11.2967 79.1447 11.0409C79.2941 10.7851 79.4897 10.5905 79.7315 10.457C79.9734 10.3235 80.2372 10.2568 80.523 10.2568C80.7318 10.2568 80.9351 10.3013 81.133 10.3903C81.333 10.477 81.4836 10.606 81.5848 10.7773V10.3269H82.2739V13.5166H81.5848V13.0595C81.4858 13.2241 81.3362 13.3532 81.1364 13.4466C80.9363 13.5378 80.7318 13.5834 80.523 13.5834C80.3098 13.5834 80.1063 13.5445 79.9128 13.4666C79.7195 13.3865 79.5492 13.2764 79.4018 13.1363C79.2568 12.9939 79.1403 12.8171 79.0523 12.6058C78.9665 12.3944 78.9237 12.1653 78.9237 11.9184ZM79.6392 11.9118C79.6392 12.2009 79.7327 12.4389 79.9196 12.6258C80.1085 12.8104 80.3373 12.9027 80.6054 12.9027C80.8758 12.9027 81.1055 12.8137 81.2945 12.6358C81.4836 12.4556 81.5782 12.2143 81.5782 11.9118C81.5782 11.6159 81.4792 11.3801 81.2814 11.2044C81.0857 11.0287 80.8603 10.9408 80.6054 10.9408C80.3349 10.9408 80.1063 11.0309 79.9196 11.2111C79.7327 11.3912 79.6392 11.6248 79.6392 11.9118ZM82.9302 10.9074V10.3269H83.4973V9.11569H84.193V10.3269H84.8625V10.9074H84.193V13.5166H83.4973V10.9074H82.9302ZM85.4988 12.7893C85.345 12.5312 85.268 12.2387 85.268 11.9118C85.268 11.5848 85.345 11.2945 85.4988 11.0409C85.655 10.7851 85.8594 10.5905 86.1121 10.457C86.3673 10.3235 86.6463 10.2568 86.9497 10.2568C87.2004 10.2568 87.4344 10.3057 87.6521 10.4036C87.8697 10.4993 88.0522 10.6349 88.1996 10.8107L87.6586 11.2478C87.4829 11.0431 87.2465 10.9408 86.9497 10.9408C86.6772 10.9408 86.4431 11.0309 86.2474 11.2111C86.0539 11.389 85.9572 11.6226 85.9572 11.9118C85.9572 12.2009 86.0551 12.44 86.2508 12.6291C86.4463 12.816 86.6794 12.9094 86.9497 12.9094C87.0882 12.9094 87.2202 12.8816 87.3455 12.826C87.4707 12.7704 87.5752 12.6936 87.6586 12.5958L88.2062 13.0262C88.0566 13.2041 87.8731 13.342 87.6554 13.4399C87.4378 13.5356 87.2026 13.5834 86.9497 13.5834C86.6485 13.5834 86.3705 13.5155 86.1155 13.3798C85.8604 13.2442 85.655 13.0473 85.4988 12.7893ZM88.9382 13.5166V8.5885H89.634V10.8107C89.7152 10.6305 89.8548 10.4937 90.0527 10.4003C90.2505 10.3046 90.445 10.2568 90.6363 10.2568C91.0386 10.2568 91.3518 10.3836 91.5762 10.6372C91.8004 10.8908 91.9125 11.2444 91.9125 11.6982V13.5166H91.2168V11.7416C91.2168 11.4969 91.1496 11.3034 91.0155 11.161C90.8837 11.0187 90.7165 10.9475 90.5143 10.9475C90.4087 10.9475 90.3066 10.9631 90.2077 10.9942C90.1087 11.0253 90.0154 11.0732 89.9274 11.1377C89.8394 11.2022 89.768 11.2923 89.713 11.4079C89.6603 11.5214 89.634 11.6526 89.634 11.8016V13.5166H88.9382ZM94.5735 9.35259C94.4835 9.26584 94.4384 9.16018 94.4384 9.03561C94.4384 8.91105 94.4835 8.80539 94.5735 8.71864C94.6658 8.63188 94.7757 8.5885 94.9034 8.5885C95.033 8.5885 95.1417 8.63188 95.2297 8.71864C95.3177 8.80317 95.3616 8.90881 95.3616 9.03561C95.3616 9.1624 95.3177 9.26806 95.2297 9.35259C95.1417 9.43712 95.033 9.47938 94.9034 9.47938C94.7757 9.47938 94.6658 9.43712 94.5735 9.35259ZM94.5571 13.5166V10.3269H95.2462V13.5166H94.5571ZM95.9025 10.9074V10.3269H96.4696V9.11569H97.1654V10.3269H97.8348V10.9074H97.1654V13.5166H96.4696V10.9074H95.9025ZM100.08 9.35259C99.9902 9.26584 99.9452 9.16018 99.9452 9.03561C99.9452 8.91105 99.9902 8.80539 100.08 8.71864C100.173 8.63188 100.283 8.5885 100.41 8.5885C100.54 8.5885 100.649 8.63188 100.736 8.71864C100.824 8.80317 100.868 8.90881 100.868 9.03561C100.868 9.1624 100.824 9.26806 100.736 9.35259C100.649 9.43712 100.54 9.47938 100.41 9.47938C100.283 9.47938 100.173 9.43712 100.08 9.35259ZM100.064 13.5166V10.3269H100.753V13.5166H100.064ZM101.726 13.5166V10.3269H102.422V10.804C102.507 10.6305 102.641 10.4959 102.824 10.4003C103.008 10.3046 103.197 10.2568 103.388 10.2568C103.77 10.2568 104.066 10.378 104.275 10.6205C104.486 10.8629 104.591 11.2088 104.591 11.6582V13.5166H103.895V11.7416C103.895 11.4902 103.836 11.2956 103.718 11.1577C103.599 11.0175 103.437 10.9475 103.233 10.9475C103.002 10.9475 102.808 11.0175 102.652 11.1577C102.499 11.2956 102.422 11.5102 102.422 11.8016V13.5166H101.726Z" fill="white"/>
</svg>
