<svg width="200" height="100" viewBox="0 0 200 100" fill="none" xmlns="http://www.w3.org/2000/svg">
<path d="M61.7686 6.56442H63.5997L66.2402 14.8953L68.1419 8.08635H69.478L71.3718 14.8953L74.0123 6.56442H75.8512L72.0947 17.7489H70.6645L68.802 11.043L66.9475 17.7489H65.5173L61.7686 6.56442ZM75.9533 13.9521C75.9533 13.17 76.1289 12.4751 76.4799 11.8673C76.8361 11.2596 77.3025 10.7973 77.8788 10.4802C78.455 10.1631 79.0838 10.0046 79.7649 10.0046C80.2625 10.0046 80.7471 10.1103 81.2186 10.3216C81.6954 10.5278 82.0544 10.8342 82.2954 11.2412V10.171H83.9377V17.7489H82.2954V16.663C82.0595 17.054 81.7033 17.3605 81.2265 17.5825C80.7497 17.7991 80.2625 17.9075 79.7649 17.9075C79.2565 17.9075 78.772 17.815 78.311 17.63C77.8499 17.4398 77.4439 17.1782 77.0928 16.8453C76.7471 16.5071 76.4694 16.087 76.26 15.5849C76.0555 15.0829 75.9533 14.5386 75.9533 13.9521ZM77.6587 13.9362C77.6587 14.6232 77.8814 15.1886 78.3267 15.6325C78.7773 16.0711 79.3222 16.2904 79.9613 16.2904C80.6057 16.2904 81.1531 16.0791 81.6037 15.6563C82.0544 15.2283 82.2795 14.6549 82.2795 13.9362C82.2795 13.2334 82.0439 12.6732 81.5722 12.2558C81.1061 11.8383 80.569 11.6296 79.9613 11.6296C79.3168 11.6296 78.772 11.8436 78.3267 12.2716C77.8814 12.6997 77.6587 13.2545 77.6587 13.9362ZM85.5016 11.5503V10.171H86.8533V7.29368H88.5115V10.171H90.1068V11.5503H88.5115V17.7489H86.8533V11.5503H85.5016ZM91.6235 16.0209C91.2568 15.4079 91.0733 14.713 91.0733 13.9362C91.0733 13.1594 91.2568 12.4698 91.6235 11.8673C91.9954 11.2596 92.4827 10.7973 93.0851 10.4802C93.6928 10.1631 94.3583 10.0046 95.0812 10.0046C95.6784 10.0046 96.2364 10.1208 96.755 10.3534C97.2737 10.5806 97.7087 10.9029 98.0595 11.3204L96.7709 12.3588C96.3518 11.8726 95.7885 11.6296 95.0812 11.6296C94.4316 11.6296 93.8737 11.8436 93.4074 12.2716C92.9462 12.6944 92.7158 13.2492 92.7158 13.9362C92.7158 14.6232 92.949 15.1913 93.4151 15.6404C93.8814 16.0843 94.4368 16.3063 95.0812 16.3063C95.4113 16.3063 95.7256 16.2402 96.0243 16.1081C96.3228 15.976 96.5718 15.7937 96.7709 15.5612L98.0754 16.5837C97.7192 17.0065 97.2816 17.3341 96.763 17.5666C96.2443 17.7938 95.6838 17.9075 95.0812 17.9075C94.3634 17.9075 93.7007 17.7463 93.093 17.4239C92.4853 17.1016 91.9954 16.6339 91.6235 16.0209ZM99.8201 17.7489V6.04126H101.478V11.3204C101.672 10.8924 102.005 10.5674 102.476 10.3454C102.948 10.1182 103.411 10.0046 103.867 10.0046C104.826 10.0046 105.572 10.3058 106.107 10.9082C106.641 11.5107 106.908 12.3509 106.908 13.4289V17.7489H105.25V13.532C105.25 12.9507 105.09 12.4909 104.771 12.1527C104.457 11.8145 104.058 11.6454 103.576 11.6454C103.325 11.6454 103.081 11.6824 102.846 11.7564C102.61 11.8304 102.387 11.944 102.178 12.0972C101.968 12.2505 101.798 12.4645 101.667 12.7393C101.541 13.0088 101.478 13.3206 101.478 13.6746V17.7489H99.8201ZM113.25 7.85648C113.036 7.65037 112.928 7.39938 112.928 7.10345C112.928 6.80752 113.036 6.5565 113.25 6.35042C113.47 6.14431 113.732 6.04126 114.036 6.04126C114.345 6.04126 114.605 6.14431 114.814 6.35042C115.024 6.55122 115.129 6.80223 115.129 7.10345C115.129 7.40466 115.024 7.65565 114.814 7.85648C114.605 8.05728 114.345 8.15769 114.036 8.15769C113.732 8.15769 113.47 8.05728 113.25 7.85648ZM113.211 17.7489V10.171H114.854V17.7489H113.211ZM116.417 11.5503V10.171H117.769V7.29368H119.427V10.171H121.022V11.5503H119.427V17.7489H117.769V11.5503H116.417ZM126.374 7.85648C126.159 7.65037 126.052 7.39938 126.052 7.10345C126.052 6.80752 126.159 6.5565 126.374 6.35042C126.594 6.14431 126.856 6.04126 127.16 6.04126C127.469 6.04126 127.728 6.14431 127.938 6.35042C128.148 6.55122 128.252 6.80223 128.252 7.10345C128.252 7.40466 128.148 7.65565 127.938 7.85648C127.728 8.05728 127.469 8.15769 127.16 8.15769C126.856 8.15769 126.594 8.05728 126.374 7.85648ZM126.335 17.7489V10.171H127.977V17.7489H126.335ZM130.296 17.7489V10.171H131.954V11.3046C132.158 10.8924 132.478 10.5727 132.913 10.3454C133.353 10.1182 133.801 10.0046 134.256 10.0046C135.168 10.0046 135.873 10.2926 136.37 10.8686C136.873 11.4446 137.125 12.2663 137.125 13.3338V17.7489H135.467V13.532C135.467 12.9348 135.325 12.4724 135.042 12.1448C134.759 11.8119 134.374 11.6454 133.887 11.6454C133.337 11.6454 132.876 11.8119 132.504 12.1448C132.137 12.4724 131.954 12.9824 131.954 13.6746V17.7489H130.296Z" fill="white"/>
<path d="M193.562 43.0736H6.43777C2.88229 43.0736 0 45.9808 0 49.5671V93.5065C0 97.0928 2.88229 100 6.43777 100H193.562C197.118 100 200 97.0928 200 93.5065V49.5671C200 45.9808 197.118 43.0736 193.562 43.0736Z" fill="#FFA800"/>
<path d="M52.3602 58.2251L26.3945 49.5671L29.6134 46.7533L54.2915 55.4113C57.5104 56.6017 57.9396 60.1732 57.9396 61.6883V87.013L54.2915 89.6104V61.6883C54.2915 59.4156 53.2186 58.5498 52.3602 58.2251Z" fill="white"/>
<path d="M43.777 63.961L18.4551 55.4113L21.674 52.8139L45.7083 61.039C48.4364 61.9913 49.3564 65.1515 49.3564 66.4502V93.9394L45.9229 96.1039V67.5325C45.9229 65.2597 44.9572 64.5022 43.777 63.961Z" fill="white"/>
<path d="M32.1884 65.1515L28.7549 63.8528V75.3247C28.7549 78.0952 30.4716 80.0866 32.1884 80.7359L40.772 83.7662V80.0866C37.5532 78.8961 32.1884 78.7879 32.1884 75.3247V65.1515Z" fill="white"/>
<path d="M21.8886 61.6883L18.4551 60.6061V82.1429C18.4551 87.8571 25.6439 88.7446 28.7555 89.9351L40.7727 93.9394V90.4762L28.7555 86.3636C24.1418 85.0649 21.8886 83.7662 21.8886 82.1429V61.6883Z" fill="white"/>
<path d="M74.2422 78.5647H77.8802C77.9136 79.5905 78.3664 80.5037 79.2381 81.3041C80.1212 82.0933 81.2388 82.4879 82.5911 82.4879C83.91 82.4879 84.9495 82.1777 85.7094 81.5578C86.4806 80.9377 86.9276 80.16 87.0506 79.2242C87.1735 77.2626 85.9274 75.9719 83.3119 75.3517L80.3278 74.5907C76.416 73.5197 74.46 71.3835 74.46 68.1818C74.46 66.8515 74.8177 65.6621 75.533 64.6139C76.2596 63.5654 77.2151 62.7649 78.3999 62.2126C79.5847 61.6489 80.8699 61.3671 82.2557 61.3671C84.48 61.3671 86.313 62.0095 87.7548 63.2948C89.2076 64.5686 89.9342 66.2766 89.9342 68.4186H86.2963C86.2963 67.3364 85.9106 66.4682 85.1394 65.8143C84.3793 65.1494 83.3903 64.8167 82.172 64.8167C81.0544 64.8167 80.093 65.1266 79.2883 65.7468C78.4948 66.3669 78.0982 67.1558 78.0982 68.1143C78.0982 69.6474 79.1486 70.6844 81.2499 71.2255L84.2677 72.0203C86.6036 72.6517 88.3025 73.61 89.3643 74.8952C90.4259 76.169 90.8564 77.6853 90.6551 79.4439C90.4875 81.3266 89.6604 82.8656 88.1739 84.0604C86.6986 85.2442 84.8377 85.8359 82.5911 85.8359C81.004 85.8359 79.5621 85.4978 78.2658 84.8214C76.9804 84.145 75.9858 83.2543 75.2815 82.1496C74.5885 81.0448 74.2422 79.8498 74.2422 78.5647ZM94.5111 93.361V69.3316H98.0484V71.716C98.5291 70.8706 99.2667 70.2054 100.262 69.7206C101.256 69.2247 102.307 68.9766 103.413 68.9766C104.855 68.9766 106.18 69.326 107.387 70.0251C108.594 70.7128 109.56 71.7048 110.287 73.0013C111.013 74.2976 111.377 75.7745 111.377 77.4316C111.377 78.6944 111.164 79.8554 110.74 80.9152C110.315 81.9749 109.739 82.8656 109.013 83.587C108.286 84.2972 107.442 84.8496 106.481 85.2442C105.52 85.6387 104.497 85.8359 103.413 85.8359C102.273 85.8359 101.212 85.6106 100.228 85.1597C99.2443 84.6974 98.5179 84.0379 98.0484 83.1812V93.361H94.5111ZM98.0819 77.4993C98.0819 78.5139 98.3222 79.4045 98.8029 80.1712C99.2834 80.9377 99.887 81.5069 100.613 81.879C101.34 82.2398 102.122 82.4201 102.961 82.4201C104.324 82.4201 105.464 81.9693 106.381 81.0673C107.308 80.1541 107.772 78.9649 107.772 77.4993C107.772 76.0113 107.308 74.7994 106.381 73.8636C105.464 72.9167 104.324 72.4433 102.961 72.4433C101.597 72.4433 100.44 72.9054 99.4903 73.8299C98.5514 74.7543 98.0819 75.9775 98.0819 77.4993ZM114.311 77.3978C114.311 75.7294 114.685 74.247 115.434 72.9504C116.194 71.6541 117.189 70.6675 118.418 69.9911C119.647 69.3147 120.989 68.9766 122.442 68.9766C123.503 68.9766 124.537 69.2022 125.543 69.653C126.56 70.0926 127.326 70.7465 127.84 71.6145V69.3316H131.344V85.4978H127.84V83.1812C127.337 84.0154 126.577 84.6693 125.56 85.1426C124.543 85.605 123.503 85.8359 122.442 85.8359C121.357 85.8359 120.324 85.6387 119.34 85.2442C118.357 84.8383 117.49 84.2803 116.742 83.5701C116.004 82.8485 115.412 81.9524 114.964 80.8814C114.528 79.8104 114.311 78.6491 114.311 77.3978ZM117.949 77.3641C117.949 78.8297 118.424 80.0359 119.374 80.9829C120.335 81.9186 121.497 82.3864 122.861 82.3864C124.236 82.3864 125.403 81.9355 126.365 81.0335C127.326 80.1203 127.806 78.8972 127.806 77.3641C127.806 75.8647 127.303 74.6697 126.298 73.779C125.303 72.8885 124.157 72.4433 122.861 72.4433C121.486 72.4433 120.324 72.8998 119.374 73.813C118.424 74.726 117.949 75.9097 117.949 77.3641ZM134.68 72.274V69.3316H137.564V63.1933H141.101V69.3316H144.504V72.274H141.101V85.4978H137.564V72.274H134.68ZM147.908 64.3939C147.449 63.9543 147.22 63.4188 147.22 62.7874C147.22 62.1561 147.449 61.6208 147.908 61.181C148.377 60.7413 148.936 60.5214 149.584 60.5214C150.243 60.5214 150.797 60.7413 151.244 61.181C151.691 61.6093 151.915 62.1448 151.915 62.7874C151.915 63.4301 151.691 63.9656 151.244 64.3939C150.797 64.8223 150.243 65.0366 149.584 65.0366C148.936 65.0366 148.377 64.8223 147.908 64.3939ZM147.824 85.4978V69.3316H151.328V85.4978H147.824ZM155.251 77.3978C155.251 75.7294 155.625 74.247 156.374 72.9504C157.134 71.6541 158.129 70.6675 159.358 69.9911C160.588 69.3147 161.929 68.9766 163.382 68.9766C164.443 68.9766 165.477 69.2022 166.483 69.653C167.5 70.0926 168.266 70.7465 168.78 71.6145V69.3316H172.284V85.4978H168.78V83.1812C168.277 84.0154 167.517 84.6693 166.5 85.1426C165.483 85.605 164.443 85.8359 163.382 85.8359C162.298 85.8359 161.264 85.6387 160.28 85.2442C159.297 84.8383 158.43 84.2803 157.682 83.5701C156.944 82.8485 156.352 81.9524 155.905 80.8814C155.469 79.8104 155.251 78.6491 155.251 77.3978ZM158.889 77.3641C158.889 78.8297 159.364 80.0359 160.314 80.9829C161.275 81.9186 162.437 82.3864 163.801 82.3864C165.176 82.3864 166.343 81.9355 167.305 81.0335C168.266 80.1203 168.746 78.8972 168.746 77.3641C168.746 75.8647 168.244 74.6697 167.238 73.779C166.243 72.8885 165.097 72.4433 163.801 72.4433C162.426 72.4433 161.264 72.8998 160.314 73.813C159.364 74.726 158.889 75.9097 158.889 77.3641ZM177.23 85.4978V60.5214H180.767V85.4978H177.23Z" fill="white"/>
<path d="M100.751 24.2424C100.751 23.824 100.415 23.4848 99.9997 23.4848C99.5849 23.4848 99.2486 23.824 99.2486 24.2424H100.751ZM99.4686 37.1158C99.7619 37.4117 100.237 37.4117 100.531 37.1158L105.311 32.2946C105.604 31.9987 105.604 31.519 105.311 31.2232C105.017 30.9273 104.542 30.9273 104.248 31.2232L99.9997 35.5087L95.751 31.2232C95.4576 30.9273 94.9821 30.9273 94.6888 31.2232C94.3954 31.519 94.3954 31.9987 94.6888 32.2946L99.4686 37.1158ZM99.2486 24.2424V36.5801H100.751V24.2424H99.2486Z" fill="white"/>
</svg>
